<svg xmlns="http://www.w3.org/2000/svg" version="1.1" xmlns:xlink="http://www.w3.org/1999/xlink" xmlns:svgjs="http://svgjs.dev/svgjs" viewBox="0 0 1422 800"><defs><linearGradient x1="50%" y1="0%" x2="50%" y2="100%" id="ssscribble-grad"><stop stop-color="#457491" stop-opacity="1" offset="0%"></stop><stop stop-color="#0a293c" stop-opacity="1" offset="100%"></stop></linearGradient></defs><g fill="none" stroke-width="1" stroke="url(#ssscribble-grad)" stroke-linecap="round"><path d="M2281.11 303.21C2276.04 327.85 2240.41 355.05 2182.36 384.88 2114.59 414.92 2051.15 448 2004.95 484.38 1985.27 521.35 1994.91 561.93 2030.65 606.12 2085.04 650.54 2145.22 697.82 2198.3 746.95 2234.03 793.95 2243.88 839.98 2225.64 882.58 2182.47 918.28 2121.48 946.25 2053.21 963.78 1988.88 970.62 1938.73 965.45 1909.84 948.72 1905.79 926.12 1924.93 899 1961.8 873.31 2009.48 858.28 2057.33 857.68 2096.16 877.5 2119.5 919.79 2121.58 983.23 2101.33 1062.55 2060.94 1145.31 2005.08 1221.3 1940.77 1277.08 1875.27 1302.35 1816.31 1293.95 1769.85 1255.34 1734.02 1176.19 1768.46 1156.96 1816.87 1271.32 1849.97 1371.55 1876.03 1457.87 1891.03 1504.05 1893.13 1497.56 1880.23 1444.43 1852.99 1369.23 1813.09 1310.35 1763.34 1297.69 1707.42 1346.7 1648.36 1444.28 1590.49 1555.7 1537.02 1636.11 1489.96 1652.48 1451.69 1601.76 1422.94 1513.42 1404.04 1440.94 1394.23 1428.4 1392.08 1492.89 1401.63 1662.35 1436.39 1681.43 1450.81 1544.47 1456.81 1523.67 1457.83 1592.41 1453.52 1716.24 1444.64 1821.06 1430.24 1843.94 1410.83 1772.92 1387.09 1662.68 1359.3 1594.16 1328.32 1623.72 1294.35 1737.69 1258.47 1860.52 1221.46 1906.62 1182.92 1845.9 1144.27 1727.16 1106.06 1645.62 1067.37 1670.78 1029.69 1788.38 993.28 1910.79 956.93 1943.33 922.04 1862.02 888.71 1735 855.56 1671.45 823.94 1727.32 793.8 1860.04 763.8 1959.12 735.19 1940.93 707.94 1820.87 680.73 1705.41 654.79 1696.46 630.15 1804.24 605.5 1933.29 582.44 1967.59 560.97 1877.92 539.55 1742.91 519.8 1679.05 501.79 1738.27 483.92 1867.74 467.9 1954.07 453.77 1923.58 433.83 1741.7 403.43 1813.36 392.31 1926.97 384.89 1868.37 378.35 1739.63 372.17 1634.67 364.47 1626.27 356.11 1713.66 346.33 1825.53 333.57 1876.96 318.12 1825.81 299.15 1704.72 275.85 1591.22 248.07 1556.18 215.33 1613.8 178.02 1719.39 135.94 1796.17 89.48 1790.53 40.38 1701.25 -11.07 1577.96 -63.4 1488.18 -113.96 1476.3 -161.78 1540.19 -204.72 1634.1 -240.55 1700.53 -268.08 1695.98 -285.83 1619.26 -293.74 1504.02 -291.44 1403.21 -279.65 1358.01 -261.44 1381.47 -238.12 1453 -212.87 1531.21 -190.77 1576.76 -174.09 1563.1 -166.49 1493.01 -171.56 1389.35 -190.18 1288.75 -223.02 1222.41 -268.75 1206.48 -324.74 1238.4 -386.94 1298.03 -449.6 1361.05 -507.59 1399.43 -555.23 1398.18 -587.89 1354.78 -602.65 1278.49 -598.38 1187.6 -577.58 1099.49 -543.39 1032.83 -501.74 996.47 -461.28 992.25 -428.36 1014.31 -409.95 1051.28 -411.68 1093.85 -434.8 1127.6 -478.19 1144.42 -537.07 1141.35 -604 1116.05 -669.74 1072.26 -724.68 1013.44 -760.87 946.98 -772.84 879.32 -759.97 812.85 -724.8 754.12 -674.37 705.11 -620.02 665.29 -571.86 635.91 -540.44 615.14 -533.93 602.15 -554.43 594.29 -599.66 589.1 -662.25 587.48 -730.81 585.41 -792.43 581.47 -835.39 578.28 -851.1 571.89 -836.29 561.9 -794.97 551.75 -735.22 537.87 -669.91 520.31 -614.33 502.63 -579.95 481.46 -574.88 456.81 -601.13 432.17 -651.95 404.35 -715.74 373.35 -779.41 342.23 -828.11 307.76 -851.5 269.9 -845.19 231.89 -809.73 190.63 -752.41 146.54 -684.55 103.21 -619.08 58.39 -568.08 13.54 -540.64 -27.75 -540.46 -65.96 -565.86 -98.6 -611.36 -123.46 -666.09 -139.27 -718.52 -144.17 -758.99 -139.89 -778.18 -125.4 -772.04 -102.68 -741.2 -78.76 -689.72 -55.54 -625.52 -39.42 -557.87 -38.33 -496.59 -55.21 -449.73 -93.74 -422.85 -152.17 -417.9 -226.98 -433.14 -310.01 -465.05 -387.46 -505.93 -449.4 -547.88 -484.46 -584.54 -487.36 -608.14 -459.35 -614.46 -409.23 -602.13 -356.32 -571.11 -317.36 -524.56 -310.6 -466.8 -345.98 -403.74 -420.33 -341.39 -518.61 -284.69 -613.51 -238.51 -679.99 -205.6 -697.89 -187.41 -665.37 -183.4 -597.86 -191.47 -526.49 -209.82 -488.69 -233.7 -506.55 -259.06 -582.81 -292.96 -742.48 -309.85 -793.46 -285.16 -669.36 -255.35 -620.04 -216.97 -642.02 -172.09 -734.09 -122.09 -853.67 -69.73 -942.34 -17.16 -954.34 34.75 -888.43 83.56 -788.07 128.14 -720.76 168.37 -737.08 203.13 -834.88 232.5 -960.52 256.66 -1038.22 275.99 -1022.28 291.27 -926.85 302.45 -823.82 310.99 -789.7 317.8 -857.13 324.38 -1036.19 337.13 -943.94 346.18 -839.09 357.18 -969.73 390 -1069.99 411.82 -899.52 427.43 -876.22 444.84 -968.57 463.93 -1102.92 483.23 -1167.06 504.01 -1106.93 526.15 -974.4 548.36 -887.15 571.8 -922.66 596.45 -1051.69 621.09 -1159.5 646.65 -1149.35 673.12 -1031.45 699.66 -908.9 727.24 -886.97 755.93 -981.15 784.86 -1109 815.09 -1158.85 846.76 -1088.11 878.82 -953.87 912.49 -864.15 947.82 -887.15 983.57 -1000.02 1020.98 -1107.01 1059.94 -1120.46 1099 -1027.2 1139.23 -895.62 1180.24 -820.97 1220.45 -853.13 1260.55 -960.97 1299.79 -1058.95 1336.72 -1072.51 1371.42 -986.95 1402.95 -858.64 1430.38 -769.54 1453.23 -773.33 1470.69 -858.09 1482.94 -961.87 1489.24 -1009.59 1489.48 -966.82 1485.36 -855.11 1476.43 -737.71 1463.77 -677.52 1450.46 -701.48 1436.73 -786.33 1424.71 -875.32 1417.82 -914.16 1416.78 -875.08 1423.62 -775.19 1440.26 -659.43 1466.88 -580.44 1503.73 -567.7 1549.57 -619 1602.93 -700.49 1661.24 -767.34 1720.41 -785.63 1777.37 -741.43 1828.01 -650.26 1868.39 -542.75 1895.91 -456.55 1908.45 -416.24 1906.27 -428.61 1890.03 -480.37 1862.42 -545.34 1829.18 -598.12 1794.39 -614.8 1764.04 -587.86 1744.91 -521.8 1740.43 -432.74 1753.77 -341.46 1785.75 -264.87 1834.13 -217.83 1894.63 -203.84 1960.44 -220.36 2024.25 -256.48 2078.15 -298.77 2123.41 -348.82 2076.71 -317.49 2006.03 -238.36 1959.9 -169.96 1925.47 -99.6 1910.65 -33.26 1920.53 27.21 1954.69 76.62 2009.07 114.5 2075.41 141.68 2142.97 158.9 2200.22 168.82 2237.35 171.85 2247.82 171.89 2229.88 171.37 2188.4 168.72 2131.31 168.32 2070.68 171.18 2005.88 177.8 2044.2 211.64 2136.53 237.91 2202.79 256.76 2254.86 278.56 2281.11 303.21Q2281.11 303.21 2281.11 303.21" opacity="0.25"></path><path d="M2179.11 371.18C2175.46 394.06 2145.08 413.55 2094.04 429.75 2032.08 446.04 1970.3 459.23 1919.66 469.67 1889.01 480.65 1882.86 489.61 1901.26 497.37 1940.8 507.01 1992.94 517.15 2047.75 529.31 2096.17 545.75 2128.45 566.68 2138.87 593.83 2125.78 627.48 2090.31 668.86 2037.79 718.35 1975.77 772.88 1913.06 832.84 1858.18 895.47 1818.1 954.62 1797.31 1008.42 1796.99 1051.75 1816.19 1079.95 1849.85 1090.96 1891.55 1083.18 1935.26 1060.55 1972.7 1025.95 1997.92 986.75 2007.52 954.99 1998.61 937.66 1971.78 943.61 1929.53 977.36 1875.98 1037.56 1816.54 1117.73 1756.42 1203.16 1701.36 1280.12 1655.76 1332.63 1622.66 1349.81 1603.8 1329.72 1598.96 1279.5 1607.41 1219 1625.85 1168.32 1650.65 1149.32 1679.25 1175.42 1706.47 1244.75 1728.8 1341.73 1747.41 1470.42 1716.31 1445.99 1667.71 1335.63 1624.69 1297.63 1576.51 1317.52 1525.62 1395.52 1473.45 1503.39 1422.85 1599.49 1375.54 1643.48 1332.25 1618.75 1294.62 1540.66 1263.04 1452.03 1237.59 1405.08 1218.21 1429.68 1204.23 1521.36 1193.21 1678.58 1191.24 1609.6 1194.62 1488.63 1197.74 1497.68 1199.57 1586.65 1199.58 1707.78 1198.93 1790.04 1195.81 1785.56 1190.11 1699.2 1183.11 1591.47 1173.49 1536.03 1161.44 1575.61 1148.08 1688.63 1132.57 1802.64 1115.25 1841.62 1096.93 1780.8 1077.2 1664.27 1056.37 1577.47 1034.94 1586.93 1012.79 1688.7 990.18 1811.3 967.29 1865.39 944.21 1811.12 921.1 1689.12 897.92 1593.94 874.85 1598.91 851.97 1702.24 829.08 1824.11 806.65 1868.84 784.63 1802.92 762.54 1676.98 740.72 1585.97 719.03 1595.99 697.07 1697.58 674.97 1812.28 652.5 1854.47 629.43 1792.79 605.62 1669.84 580.78 1570.79 554.95 1561.51 527.67 1643.84 498.67 1756.21 468.36 1819.92 436.02 1788.41 401.5 1680.94 365.67 1563.98 327.71 1508.99 287.75 1544.41 247.12 1642.96 205.13 1737.1 162.35 1765.53 120.41 1708.16 79.04 1595.18 39.2 1488.19 2.46 1442.03 -30.93 1476.1 -59.85 1563.55 -83.44 1652.29 -101.09 1688.44 -112.1 1650.06 -116.97 1552.69 -115.22 1441.21 -107.2 1364.55 -95.16 1352.32 -79.22 1402.75 -61.1 1484.47 -44.24 1556.43 -29.46 1580.36 -19.19 1543.19 -16.51 1456.37 -22.24 1351.65 -37.89 1265.28 -64.21 1223.25 -100.72 1234.64 -146.42 1286.86 -198.75 1356.81 -255.25 1413.07 -312.38 1433.37 -365.72 1408.71 -411.96 1343.35 -447.44 1254.72 -469.61 1162.88 -477 1090.21 -469.36 1049.75 -449.21 1045.71 -418.81 1072.63 -382.52 1117.48 -331.64 1186.84 -297.78 1194.62 -333.98 1119.35 -379.61 1047.92 -436.58 973.03 -498.91 903.32 -559.24 843.43 -610.61 799.46 -646.59 772.13 -663.04 760.87 -658.08 762.77 -632.89 773.44 -592.87 791.35 -544.07 810.13 -494.96 826.3 -443.58 843.97 -472.02 835.74 -550.35 811.11 -614 788.29 -673.92 761.75 -720.17 733 -745.28 701.9 -744.76 670.4 -718.63 639.53 -672.52 607.8 -614.17 577.7 -554.49 549.74 -505.75 521.62 -476.53 496.01 -472.88 473.12 -496.31 450.24 -541.45 430.34 -599.36 413.27 -659.86 396.02 -710.62 381.22 -742.27 368.37 -749.66 354.67 -730.7 341.92 -688.82 329.13 -631.31 313.98 -567.61 296.98 -508.12 276.64 -462.2 251.82 -436.45 221.63 -433.77 184.81 -453.93 142.48 -491.72 93.26 -539.66 37.7 -590.08 -19.97 -633.06 -79.84 -661.23 -138.37 -670.31 -189.66 -657.52 -231.72 -624.31 -260.12 -574.8 -272.47 -515.09 -267.67 -452.61 -246.43 -394.45 -215.38 -347.23 -178.61 -315.43 -144.75 -301.64 -125.25 -305.55 -125.87 -324.57 -152.68 -355.56 -205.53 -392.19 -279.79 -428.57 -365.23 -471.09 -476.15 -471.63 -510.92 -424.71 -432.2 -377.83 -376.31 -323.67 -343.02 -266.42 -349.75 -209.54 -401.43 -157.28 -488.39 -112.57 -588.33 -77.27 -670.56 -52.81 -711.25 -39.09 -697.78 -38.71 -601.49 -79.96 -518.13 -107.48 -640.62 -130.02 -785.35 -138.46 -737.47 -120.54 -618 -99.71 -601.75 -72.66 -659.17 -40.48 -768.32 -3.71 -876.19 36.21 -929.81 78.08 -902.29 121.8 -813.94 165.6 -718.66 208.63 -678.05 251.3 -723.22 292.08 -833.19 330.63 -946.63 367.64 -996.94 402.1 -955.88 434.09 -851.85 464.27 -757.28 492.22 -737.66 518.24 -812.25 542.73 -935.51 565.78 -1027.74 587.75 -1027.33 608.68 -937.13 629.01 -821.96 649.09 -766.96 668.59 -815.82 688.21 -936.13 708.2 -1042.27 727.93 -1056.87 748.29 -969.31 769.42 -845.66 790.48 -781.99 812.42 -827.83 835.31 -949.69 858.19 -1053.04 881.74 -1056.91 905.88 -959.46 929.96 -835.16 954.51 -777.43 979.35 -826.95 1003.93 -945.02 1028.56 -1041.18 1052.96 -1043.97 1076.78 -950.48 1099.98 -826.16 1122.21 -756.48 1143.41 -786.6 1163.14 -890.72 1181.01 -992.85 1197.35 -1021.56 1211.37 -954.22 1222.7 -833.58 1232.23 -734.29 1238.86 -715.88 1242.47 -783.24 1244.53 -889.5 1243.91 -962.66 1240.9 -954.95 1237.53 -867.76 1232.89 -748.97 1227.82 -662.69 1224.6 -651.74 1222.8 -715.22 1223.6 -810.51 1229 -881.79 1238.98 -885.11 1254.6 -816.03 1276.72 -705.26 1305.4 -604.15 1340.8 -555.58 1382.04 -575.72 1428.61 -647.15 1479.23 -729.58 1531.36 -782.13 1583.62 -775.79 1633.56 -710.79 1678.19 -609.54 1715.76 -509.48 1744.03 -443.96 1761.72 -430.92 1767.96 -467.92 1762.66 -533.46 1747.94 -600.45 1724.96 -639.09 1696.62 -633.8 1667.9 -583.43 1641.54 -500.67 1621.68 -407.42 1612.89 -324.45 1616.93 -270.94 1635.54 -254.08 1668.8 -272.54 1714.84 -314.82 1770.49 -364.98 1830.7 -409.88 1890.33 -434.22 1943.47 -431.52 1984.64 -401.04 2009.85 -346.69 2016.47 -277.36 2005.08 -200.58 1977.39 -127.85 1937.85 -66.57 1893.99 -20.14 1852 8.02 1819.26 19.49 1802.83 15.83 1805.88 2.19 1829.84 -16.33 1872.87 -38.34 1929.76 -57.23 1993.09 -70.24 2053.95 -78.21 2103.66 -77.63 2134.72 -68.93 2142.95 -53.71 2127.08 -31.86 2089.99 -5.15 2039.33 25.84 1983.41 59.24 1932.61 93.49 1897.44 129.62 1884.11 164.92 1896.03 198.51 1932.21 232.65 1986.39 264.36 2049.18 293.28 2109.38 322.28 2155.68 348.29 2179.11 371.18Q2179.11 371.18 2179.11 371.18" opacity="0.88"></path><path d="M2077.12 530.83C2074.71 551.95 2049.23 574.21 2005.1 597.38 1949.58 620.31 1891.17 643.66 1838.78 666.86 1800.28 689.07 1780.83 710.13 1782.55 729.12 1805.01 745.93 1843.49 759.35 1891.42 768.39 1942.07 774.21 1986.62 774.81 2018.29 769.87 2032.94 762.34 2027.44 750.43 2002.37 735.45 1960.87 722.09 1907.78 709.93 1849.56 702.13 1792.77 703.23 1743.8 714.21 1707.57 737.84 1687.44 774.65 1684.31 824.62 1696.96 885.99 1723.28 952.58 1758.14 1020.7 1796.26 1083.24 1848.43 1146.77 1884.33 1136.4 1856.7 1073.31 1820.75 1029.49 1774.82 997.69 1722.61 989.53 1667.62 1012.32 1614.13 1065.8 1565.65 1143.45 1524.69 1229.66 1493.57 1308.28 1473.15 1361.44 1463.83 1377.05 1464.54 1353.1 1473.57 1298.04 1489.84 1233.25 1510.04 1180.71 1531.55 1162.72 1553.22 1191.54 1571.57 1263.33 1584.84 1359.91 1592.84 1479.95 1560.28 1430.28 1521.21 1318.41 1487.45 1284.4 1449.41 1308.67 1408.49 1388.03 1365.14 1493 1321.23 1582.81 1277.84 1620.01 1234.99 1590.76 1194.27 1511.09 1156.2 1422.06 1120.46 1372.65 1087.95 1391.36 1058.66 1475.27 1032.22 1586.11 1008.78 1671.19 987.98 1688.15 969.67 1630.85 953.38 1532.05 938.62 1449.12 925.65 1433.23 913.52 1497.08 901.78 1609.1 891.13 1707.38 880.31 1737.07 869 1681.38 858.24 1576.17 846.62 1486.2 833.94 1469.76 821.48 1540.42 807.76 1656.59 792.67 1746.76 777.64 1754.34 761.16 1674.49 743.15 1558.93 725.15 1485.06 705.61 1502 684.48 1600.25 663.36 1714.47 640.9 1767.27 617.18 1724.47 593.46 1614.62 568.5 1509.18 542.37 1474.85 516.32 1531.92 489.19 1641.16 461.13 1731.63 433.29 1746.43 404.72 1674.76 375.64 1559.79 347.11 1468.49 318.44 1452.61 289.99 1516.91 262.62 1621.06 236.02 1700.59 210.66 1708.26 187.1 1638.01 165.46 1526.48 146.27 1431.72 129.59 1400.26 115.96 1443.89 105.79 1533.88 98.48 1620.76 94.82 1655.5 94.89 1618.78 97.29 1525.73 102.82 1418.34 110.98 1343.1 119.68 1329.42 129.42 1377.63 139.12 1459.6 146.39 1535.99 151.31 1568.41 152.52 1541 148.12 1462 137.94 1360.43 121.06 1272.31 96.94 1225.65 65.73 1232.55 27.69 1283.34 -15.79 1355.81 -63.77 1418.22 -114.41 1446.13 -164.91 1428.28 -213.45 1367.29 -257.42 1280.35 -294.13 1188.96 -321.87 1117.01 -338.89 1079.18 -344.81 1080.36 -339.34 1114.3 -323.33 1166.35 -299.79 1221.37 -270.54 1260.71 -239.04 1273.39 -210.33 1255.5 -187.15 1208.62 -173.21 1141.49 -171.98 1063.48 -184.41 988.03 -211.01 925.05 -250.55 880.14 -300.29 857.44 -356.26 855.26 -413.23 871.08 -466.12 897.77 -509.62 928.33 -546.07 970.79 -510.12 989.71 -449.88 959.62 -405.39 925.25 -365.14 883.3 -335.56 836.87 -322.41 786.32 -327.92 735.85 -352.63 687.38 -394.36 639.65 -448.03 595.97 -506.83 556.61 -562.92 519.65 -608.58 486.87 -637.23 457.66 -645.14 430.42 -630.89 405.73 -596.57 382.83 -548.36 360.92 -493.1 339.85 -439.7 319.07 -397.68 298.56 -373.28 277.83 -370.87 256.71 -391.6 235.58 -431.27 214.31 -483.1 193.1 -539.42 172.15 -590.3 151.77 -627.65 132.53 -646.32 114.29 -642.67 98.13 -617.35 84.85 -574.29 73.54 -519.4 66.12 -460.5 63.25 -405.6 62.76 -361.87 66.95 -334.55 75.57 -326.78 84.93 -338.22 96.67 -366 108.9 -406.13 117.01 -451.41 121.04 -494.92 117.91 -531.21 104.4 -554.03 79.58 -560.07 41.9 -548.55 -7.03 -519.85 -66.44 -477.03 -132.94 -424.34 -199.17 -367.16 -261.06 -311.07 -311.57 -260.96 -344.09 -221.25 -355.58 -194.64 -344.33 -182.68 -315 -184.84 -272.67 -199.16 -227.22 -223.67 -192.64 -253.78 -177.75 -285.33 -191.26 -315.47 -235.35 -339.44 -305.51 -354.43 -390.76 -359.29 -473.04 -352.19 -536.61 -333.4 -566.78 -303.94 -557.95 -265.36 -514.36 -220.1 -450.66 -170.22 -391.4 -118.84 -357.42 -68.56 -365.89 -21.05 -420.14 21.23 -508.2 57.05 -605.61 85.73 -681.35 106.75 -712.51 120.47 -689.36 127.32 -585.34 110.5 -510.3 94.7 -633.94 69.49 -739.34 73.29 -593.8 91.98 -721.69 108.86 -827.17 128.97 -885.44 151.76 -867.74 176.96 -786.71 204.03 -688.02 232.42 -629.67 262.31 -649.23 292.79 -739.75 323.42 -853.97 354.81 -928.36 385.85 -921.62 416.26 -838.5 446.95 -731.67 476.74 -667.16 505.46 -688.12 534.24 -784.76 561.85 -899.21 588.21 -960.48 614.57 -930.38 639.65 -828.11 663.43 -720.36 687.2 -679.64 709.67 -733.47 730.79 -847.68 751.92 -945.95 771.45 -961.86 789.4 -885.91 807.35 -768.24 823.71 -685.2 838.5 -688.56 859.91 -830.02 895.27 -878.84 909.61 -716.9 919.05 -653.03 927.5 -673.57 935.21 -761.77 943.69 -863.74 951.94 -916.61 960.38 -888.82 970.32 -793.98 981.17 -682.35 993.47 -611.3 1008.17 -614.5 1025.12 -684.95 1044.85 -780.3 1067.73 -848.74 1093.96 -851.13 1123.81 -784.55 1156.87 -678.33 1193.43 -580.62 1233.26 -532.51 1275.09 -550.85 1319 -620.99 1364.08 -705.52 1408.44 -764.44 1451.72 -767.5 1492.48 -711.51 1528.91 -616 1560.25 -516.54 1585.15 -447.43 1602.84 -429.27 1612.65 -462.88 1614.2 -529.04 1608.61 -600.68 1595.93 -646.82 1577.41 -649.32 1556.11 -605.01 1533.08 -525.44 1510.88 -432.97 1487.54 -324.06 1495.47 -333.18 1534.55 -413.66 1574.49 -461.09 1622.69 -483.74 1676.33 -475.13 1731.37 -435.57 1784.24 -371.77 1830.74 -295.4 1867.06 -216.93 1890.45 -149.44 1898.94 -100.64 1892.77 -73.94 1872.72 -69.74 1841.45 -83.58 1804.21 -111.43 1765.06 -144.36 1729.56 -175.28 1697.75 -207.89 1735.78 -189 1804.52 -139.57 1861.76 -94.28 1919.88 -44.21 1971.93 7.47 2011.63 60.78 2034.07 111.42 2036.37 158.06 2019.1 202.11 1984.5 241 1937.75 275.03 1887 305.83 1839.3 332.6 1802.43 356.32 1783.3 377.85 1784.85 397.63 1807.69 416.57 1849.23 434.52 1903.26 452.61 1961.71 471.41 2015.65 489.96 2056.39 509.7 2077.12 530.83Q2077.12 530.83 2077.12 530.83" opacity="0.87"></path><path d="M1974.94 273.75C1974.03 293.11 1953.47 313.76 1916.33 335.79 1867.85 357.99 1814.25 381.93 1762.48 407.9 1719.14 434.5 1689.28 463.64 1676.11 495.67 1681.11 528.66 1702.56 564.77 1737.02 603.98 1780.41 643.68 1826.09 685.75 1868.07 729.33 1901.77 771.23 1922.07 812.34 1926.46 850.75 1914.58 883.57 1887.05 910.3 1846.73 928.81 1797.56 938.29 1744.31 937.68 1692.01 926.66 1645.16 908.42 1607.76 883.26 1582.46 854.51 1571.82 818.83 1625.92 818.44 1673.96 873.3 1706.52 931.06 1734.2 999.78 1754.09 1071.99 1764.77 1136.97 1764.1 1187.28 1751.91 1214.91 1728.91 1216.23 1696.2 1191.88 1655.87 1147.49 1609.97 1096.06 1561.36 1049.29 1512.7 1021.37 1465.91 1023.79 1423.55 1059.72 1387.17 1125.89 1357.73 1208.97 1336.05 1292.42 1322.04 1356.72 1315.73 1386.12 1315.99 1374.61 1321.58 1326.61 1338.74 1228.83 1381.95 1197.52 1400.17 1311.93 1409.1 1440.86 1362.54 1264.57 1328.29 1310.37 1301.37 1401.69 1272.19 1500.8 1241.4 1568.39 1208.87 1577.44 1175.67 1525.7 1142.33 1437.56 1108.32 1356.67 1074.83 1322.13 1042.15 1354.43 1009.49 1442.04 977.98 1546.57 947.73 1619.67 917.82 1627.09 889.24 1566.14 861.97 1468.19 835.08 1385.86 809.42 1362.72 784.9 1414.03 760.66 1515.2 737.42 1614.6 715.09 1659.69 692.92 1626.71 671.51 1533.34 650.83 1431.13 630.18 1378.51 610.18 1405.3 590.81 1497.86 571.45 1603.97 552.95 1662.47 535.35 1641.14 517.79 1552.39 501.2 1445.29 485.66 1377.8 470.27 1385.19 456.07 1461.21 443.16 1562.89 430.54 1636 419.36 1640.33 409.72 1573.52 388 1422.07 371.76 1597.55 370.77 1515.16 366.27 1360.56 340.84 1533.95 320.03 1485.84 301.06 1395.99 278.06 1299.72 250.77 1229.86 219.55 1207.66 184.34 1236.52 145.53 1300.59 104.39 1374.83 61.21 1428.9 17.08 1442.68 -26.06 1410 -67.55 1338.98 -105.8 1249.9 -139.1 1165.45 -166.5 1107.73 -186.76 1088.1 -199.32 1107.62 -203.62 1155.71 -199.57 1214.97 -188.57 1268.68 -170.98 1299.11 -148.33 1297.67 -123.82 1263.38 -98.73 1202.3 -75.69 1126.48 -58.24 1047.96 -47.73 981.03 -46.27 934.69 -55.62 913.24 -75.82 916.73 -106.66 939.81 -146.71 976.87 -193.86 1017.32 -245.15 1052.66 -296.74 1078.1 -345.15 1087.1 -386.55 1078.36 -417.66 1052.62 -436.07 1012.2 -440.24 961.57 -430.7 903.5 -408.29 844.09 -375.63 787.42 -337.52 734.66 -297.68 689.9 -261.09 653.94 -225.47 616.69 -247.15 588.92 -305.27 589.35 -356.47 593.48 -410.51 597.41 -461.38 599.96 -517.33 603.35 -521.98 595.36 -469.92 583.39 -421.99 574 -371.28 561.86 -324.74 547.17 -289.54 532.34 -269.96 515.22 -269.05 495.85 -287.6 476.49 -322.32 455.12 -368.18 431.7 -419.57 408.15 -468.69 382.29 -508.95 353.97 -535.71 325.23 -544.77 293.76 -535.05 259.45 -508.04 224.74 -466.7 187.38 -416.07 147.74 -362.03 108.67 -310.68 68.54 -267.57 28.56 -237.17 -8.34 -222.11 -42.58 -223.08 -72.22 -239.59 -95.28 -268.32 -110.93 -305.06 -117.62 -345.9 -116.03 -384.82 -105.25 -417.11 -86.06 -439.66 -62.95 -448.9 -36.68 -443.65 -11.31 -424.36 6.62 -392.15 14.78 -349.81 8.74 -300.6 -14.3 -248.53 -54.61 -197.57 -110.89 -151.07 -177.07 -112.29 -247.88 -83.31 -314.79 -62.15 -384.14 -85.95 -371.07 -120.11 -300.92 -146.7 -252.81 -171.98 -218.86 -193.53 -211.13 -210.26 -236.25 -219.61 -292.65 -220.7 -371.73 -213.58 -456.37 -197.8 -529.24 -174.13 -572.93 -143.45 -577.46 -107.07 -543.27 -66.61 -481.69 -23.08 -415.47 21.47 -366.66 65.55 -355.5 108.52 -390.8 148.66 -465.72 185.16 -560.12 217.87 -644.36 245.97 -692.7 269.49 -689.26 288.45 -638.15 303.14 -559.91 314.07 -487.33 321.22 -453.69 325.64 -475.76 328.07 -550.09 325.72 -706.68 323.38 -528.73 327.22 -588.94 333.68 -737.85 356.86 -763.81 373.22 -624.9 385.24 -565.55 398.66 -576.43 413.32 -655.19 428.36 -762.55 444.41 -843.35 461.33 -854.61 478.43 -790.98 496.22 -686.78 514.59 -599.95 533.02 -580.52 551.93 -639.96 571.29 -746.07 590.66 -838.65 610.24 -864.49 630.07 -809.97 649.94 -705.83 670.15 -609.55 690.77 -572.71 711.57 -613.93 732.96 -708.55 755.06 -804.06 777.55 -849.72 800.96 -820.02 825.47 -730.24 850.54 -624.81 876.91 -555.48 904.67 -553.65 933.12 -617.51 963.07 -711.94 994.51 -788.64 1026.52 -810.04 1059.88 -763.76 1094.42 -670.29 1129.01 -569.56 1164.27 -504.4 1199.8 -499.23 1234.36 -552.62 1268.29 -636.73 1300.94 -712.31 1331.21 -746.37 1359.05 -721.86 1383.7 -647.42 1404.56 -549.34 1421.2 -463.12 1433.08 -417.06 1440.41 -423.67 1442.66 -475.44 1439.81 -548.78 1433.15 -615.89 1422.34 -649.34 1408.17 -636.42 1392.89 -579.31 1376.59 -494.15 1360.77 -404.97 1343.4 -316.58 1342.67 -373.77 1366.04 -460.82 1392.5 -501.61 1426.63 -511.57 1467.51 -487.44 1513.2 -432.96 1562 -359.05 1611.45 -279.92 1658.46 -207.81 1700.73 -155.18 1735.58 -127.69 1760.88 -126.51 1775.13 -147.48 1777.44 -182.61 1768.62 -224.97 1749.3 -263.34 1721.54 -290.26 1689.33 -302.17 1655.28 -295.08 1623.33 -270.02 1598.27 -229.04 1582.59 -176.71 1579.05 -118.37 1589.56 -56.91 1613.79 1.37 1650.53 53.18 1697.01 97.76 1749.34 132.35 1802.76 157.25 1852.09 173.12 1892.58 181.15 1920.02 183.47 1931.92 180.19 1926.95 174.59 1905.77 168.54 1871.88 160.81 1828.89 154.94 1782.33 151.76 1721.79 149.43 1685.95 163.2 1723.45 178.47 1767.55 190.22 1819.56 204.27 1872.89 220.31 1920.68 236.53 1956.39 254.39 1974.94 273.75Q1974.94 273.75 1974.94 273.75" opacity="0.58"></path><path d="M1873.1 417.88C1872.74 435.48 1855.99 450.43 1824.96 462.76 1783.38 475.08 1735.63 484.76 1686.9 491.9 1599.71 506.03 1643.94 516.48 1702.9 522.89 1742.89 531.43 1777.44 543.59 1803 560.69 1819.19 611.46 1782.29 688.07 1704.32 788.39 1608.46 890.96 1522.49 980.73 1467.89 1029.63 1455.45 1023.78 1481.04 967.94 1529.56 893.77 1585.33 858.92 1625.65 897.7 1637.56 1015.59 1617.38 1155.15 1565.61 1241.54 1492.11 1218.44 1407.02 1118.26 1323.99 1034.92 1252.84 1067.06 1198.57 1211.06 1164.55 1353.8 1148.4 1365.85 1170.74 1308.57 1181.67 1241.95 1152.78 1412.3 1139.95 1492.53 1125.56 1527.66 1109.89 1503.92 1093.28 1432.6 1075.74 1343.42 1057.52 1275.31 1038.71 1259.87 1019.51 1305.31 1000.16 1394.49 980.48 1489.69 960.86 1550.1 941.46 1548.69 921.92 1486.7 902.75 1391.81 884.05 1307.97 865.31 1275.54 847.11 1309.97 829.51 1396.29 811.91 1493.88 795.1 1555.68 779.07 1553.25 763 1488.31 747.63 1390.83 732.88 1305.15 717.99 1269.01 703.57 1297.09 689.49 1374.7 675.07 1467.03 660.77 1531.65 646.39 1540.3 631.41 1489.01 616.04 1398.59 600.06 1305.8 583.14 1246.66 565.25 1243.01 546.14 1292.94 504.19 1454.58 455.58 1487.58 399.18 1338.69 337.55 1191.29 269.41 1217.26 197.22 1357.27 127.53 1425.15 62.28 1324.17 7.82 1158.06 -30.29 1085.52 -48.68 1158.06 -44.78 1274.72 -24.01 1309.69 10.67 1214.95 49.61 1063.82 76.96 958.22 84.79 958.59 63.4 1034.69 9.91 1120 -69.59 1141.21 -162.02 1082.28 -247.21 965.79 -306.91 842.98 -325.87 754.59 -302.68 716.44 -245.41 725.53 -175.35 758.47 -123.18 801.46 -109.21 828.41 -145.27 831.7 -180.76 826.07 -224.48 814.64 -272.85 798.44 -321.62 778.21 -366.4 754.81 -402.93 729.39 -427.87 701.7 -438.66 673.44 -434.1 645.47 -415.25 616.54 -383.61 588.77 -342.54 562.6 -297.3 536.15 -252.18 511.69 -212.37 489.42 -183.1 467.11 -167.24 447.1 -166.88 429.49 -182.65 411.89 -212.11 396.9 -251.65 384.44 -297.4 371.94 -343.45 361.86 -384.63 354.02 -426.87 342.77 -418.37 326.39 -369.27 318.26 -324.42 310.48 -275.57 300.98 -227.29 288.62 -183.84 272.23 -148.89 251.38 -125.09 225.07 -116.78 157.9 -155.32 68.42 -220.63 -35.57 -288.69 -129.54 -330.04 -198.13 -329.35 -217.78 -285.46 -187.21 -207.67 -120.52 -115.66 -58.29 -28.74 -53.63 35.08 -127.24 67.53 -262.93 66.94 -389.4 41.81 -438.12 4.88 -378.66 -34.98 -273.67 -62.31 -222.89 -69.88 -299.43 -56.62 -457.66 -20.86 -569.4 32.35 -533.53 98.89 -404.08 171.37 -337.21 243.58 -436.49 314.1 -607.91 377.17 -662.57 431.66 -540.98 478.94 -417.89 518.21 -473.82 551.52 -655.33 566.21 -715.19 580.01 -720.72 593.21 -669.96 611.57 -544.14 647.28 -508.98 665.65 -641.78 677.79 -724.54 690.62 -756.96 704.28 -724.3 717.82 -642.1 732.3 -547.25 747.78 -484.08 763.24 -483.41 779.76 -546.1 797.36 -643.69 814.97 -730.01 833.45 -763.55 852.76 -729.35 872.05 -643.75 892.11 -546.24 912.86 -480.76 933.49 -475.86 954.7 -531.94 976.32 -621.99 997.68 -706 1019.26 -745.45 1040.87 -723.22 1061.95 -648.32 1082.76 -551.54 1103.04 -471.84 1122.43 -439.71 1140.9 -465.67 1158.16 -535.97 1200.35 -674.99 1230.46 -420.22 1215.97 -596.46 1193.39 -547.45 1182.3 -352.89 1227.74 -507.09 1285.69 -497.66 1361.36 -370.36 1447.37 -224.04 1530.46 -154.8 1599.52 -192.84 1641.69 -282.02 1650.82 -349.54 1626.18 -335.91 1575.92 -246.8 1520.57 -118.36 1476.91 -6.4 1464.42 57.25 1495.13 66.16 1565.17 35.89 1659.04 -5.66 1780.89 -52 1796.42 -21.03 1748.47 13.06 1708.57 40.81 1667.32 70.57 1629.26 101.18 1599.39 133.5 1580.52 165.3 1575.24 195.88 1585 226.98 1608.86 256.22 1644.82 283.32 1689.48 310.48 1738.16 335.33 1785.67 357.78 1826.98 380.22 1857.33 400.27 1873.1 417.88Q1873.1 417.88 1873.1 417.88" opacity="0.29"></path><path d="M1771.12 504.63C1758.8 536.32 1699.06 573.77 1613.82 615.26 1532.15 654.85 1479.77 694.43 1470.98 728.99 1506.96 754.98 1571.28 768.04 1640.55 763.22 1694.08 746.97 1711.73 716.49 1687.94 681.13 1628.44 661.92 1546.87 667.63 1462.23 713.54 1391.31 798.05 1347.19 909.16 1333.98 1016.71 1350.7 1080.81 1386.84 1080.41 1429.75 1016.22 1470.72 934.77 1496.01 889.1 1499.82 928.12 1481.64 1045.93 1441.5 1182.77 1385.06 1252.26 1317.08 1211.32 1245.4 1099.64 1176.24 1022.65 1111.86 1067.67 1057.24 1213.23 1013.13 1340.4 978.95 1335.89 953.94 1212.57 935.51 1109.23 919.01 1234.72 893.26 1280.27 875.16 1161.28 862.14 1292.86 844.64 1440.28 822.42 1414.37 800.13 1252.98 773.18 1175.36 741.49 1294.25 709.81 1446.45 674.13 1418.4 634.7 1250.99 595.2 1167 551.88 1270.72 505.14 1416.6 458.69 1414 409.57 1260 359.06 1136.91 310.87 1179.17 263.94 1321.75 220.86 1389.85 184.37 1301.03 155.84 1141.37 137.98 1063.44 130.07 1127.63 134.18 1251.56 149.72 1304.99 170.04 1231.82 194.56 1085.39 217.2 974.13 228.3 965.88 224.93 1046.35 201.58 1138.14 156.24 1171.96 91.39 1115.11 13.01 999.05 -67.31 874.9 -138.73 797.21 -188.45 782.84 -208.23 823.23 -194.81 883.83 -152.16 931.03 -95.79 949.15 -40.03 925.39 -3.76 869.12 -3.2 789.16 -41.48 703.42 -112.9 624.17 -200.04 551.09 -279.5 493.24 -327.7 448.32 -331.14 411.53 -288.09 381.6 -212.69 353.86 -133.72 328.31 -77.19 300.55 -64.87 268.87 -103.72 237.18 -177.12 202.32 -257.78 166.14 -319.46 132.16 -338.46 101.28 -308.96 78.3 -240.72 63.45 -153.7 62.6 -73.07 78.18 -20.05 99.95 -6 129.41 -29.5 154.46 -81.69 155.82 -142.06 126.05 -191.42 55.91 -217.43 -43.3 -209.35 -154.42 -168.48 -243.65 -102 -278.14 -21.91 -247.63 58.09 -168.83 127.73 -98.09 177.75 -84.73 205.43 -160.07 210.52 -293.38 198.57 -413.41 176.85 -442.61 148.77 -368.78 124.48 -257.63 109.08 -217.43 102.52 -303.83 109.63 -458.47 129.46 -550.94 159.85 -501.3 199.61 -367.47 245.41 -301.85 296.58 -393.14 349.35 -556.36 401.39 -616.53 454.5 -511.35 504.78 -372.47 551.46 -382.05 597.79 -540.15 640.37 -653.22 679.17 -575.56 717.74 -414.4 752.91 -389.51 784.6 -541.68 816.28 -660.62 843.74 -579.83 866.89 -412.17 889.81 -379.93 908.05 -518 921.48 -637.39 938.77 -498.65 954.57 -490.49 960.06 -582.48 969.17 -455.93 982.97 -306.78 1004.6 -273.97 1036.8 -372.86 1080.2 -487.72 1135.6 -499.78 1199.84 -389.81 1271.29 -242.84 1344.71 -164.47 1411.77 -196.52 1467.23 -293.81 1503.67 -370.09 1517.52 -367.6 1507.05 -278.44 1474.83 -151.66 1409.84 -18.32 1357.38 -98.78 1422.97 -161.57 1500.59 -155.47 1586.79 -107.65 1662.2 -33.53 1708.93 56.73 1715.51 143.49 1680.37 217.24 1617.63 279.56 1545.73 325.21 1489.73 358.98 1472.46 384.18 1500.79 405.42 1568.73 427.55 1655.66 447.77 1732.27 472.95 1771.12 504.63Q1771.12 504.63 1771.12 504.63" opacity="0.41"></path><path d="M1669.11 258.34C1660.73 286.51 1613.37 316.05 1541.19 348.13 1464.01 381.88 1401.36 421.25 1367.84 468.77 1370.72 520.8 1405.58 582.83 1460.6 653.82 1522.65 723.68 1572.88 792.66 1598.78 850.5 1595.28 886 1560.71 893.78 1502.04 869.28 1429.06 824.91 1354.21 771.03 1288.65 731.81 1240.08 734.18 1213.29 787.48 1207.76 887.69 1221.93 1001.27 1248.23 1089.9 1279.18 1113.84 1323.23 1021.43 1340.21 955.06 1305.45 1137.26 1267.06 1230.15 1220.41 1221.29 1169.07 1119.77 1113.72 1016.44 1058.55 1003.57 1005.66 1108.73 953.67 1251.84 905.79 1314.61 862.23 1241.54 820.81 1108.92 783.23 1050.14 748.82 1135.41 715.8 1286.37 684.81 1352.08 655.21 1262.67 626.01 1117.89 597.42 1077.53 569.26 1192.24 541.09 1334.03 514.01 1340.68 488.35 1207.45 463.09 1078.92 440.01 1089.14 419.92 1217.97 381.1 1177.44 378.28 1262.44 391.16 1162.17 397.13 985.04 363.37 1119.66 309.2 1171.43 256.83 1092.99 194.14 968.99 125.18 862.15 57.32 815.12 -4.13 838.22 -51.56 902.96 -79.28 974.56 -83.85 1011.1 -64.62 997.46 -28.39 936.6 19.16 846.59 67.02 751.87 100.56 666.31 112.18 606.69 95.03 573.91 48.48 565.28 -20.07 572.48 -98.01 585.35 -193.09 610.21 -181.16 616.32 -82.37 595.3 -15.76 577.26 28.73 553.66 37.11 525.49 4.81 497.33 -56.63 465.26 -128.75 428.44 -193.27 390.24 -230.17 344.91 -230.02 290.99 -193.72 234.46 -129.08 169.79 -51.68 100.07 21.78 36.09 76.35 -21.13 103.11 -61.32 98.73 -77.36 68.88 -65.35 23.84 -26.05 -27.1 22.41 -69.04 67.53 -92.74 84.99 -94.6 55.24 -71.47 -23.2 -27.05 -135.1 33.43 -240.15 102.2 -301.94 171.32 -291.85 235.79 -221.93 289.36 -133.09 329.69 -87.89 356.05 -129.92 369.49 -247.23 372.98 -376.43 338.81 -401.52 371.55 -267.05 404.68 -380.81 429.43 -520.53 456.13 -539.08 483.86 -416.15 512 -288.47 540.35 -297.92 568.52 -439.69 596.68 -554.43 624 -511.27 650.72 -360.92 677.86 -265.91 705.21 -323.29 733.58 -463.38 763.5 -537.81 795.83 -465.61 831.6 -317.1 870.21 -228.11 913.42 -272.52 961.65 -394.98 1012.52 -479.51 1067.55 -443.7 1125.32 -315.25 1181.62 -188.6 1236.2 -152.43 1285.45 -215.99 1325.36 -322.46 1353.85 -383.91 1367.79 -355.53 1367.76 -249.71 1352.87 -124.4 1325.32 -40.14 1293.11 -27.16 1259.5 -77.11 1232.27 -150.39 1221.11 -210.31 1229.34 -221.68 1260.54 -180.64 1313.55 -98.01 1382.79 0.76 1458.86 91.37 1555.43 182.03 1582.63 196.75 1506.94 168.52 1419.84 143.71 1402.13 152.81 1494.81 181.27 1572.51 204.05 1636.81 230.17 1669.11 258.34Q1669.11 258.34 1669.11 258.34" opacity="0.75"></path><path d="M1567.12 462.8C1562.03 487.45 1526.05 505.25 1467.78 516.09 1399.77 526.51 1335.39 529.47 1286.69 525.38 1262.3 521.95 1264.57 514.14 1290.51 505.79 1335.08 505.64 1386.54 513.95 1434.17 537.46 1470.95 579.1 1487.84 640.51 1482.1 719.4 1454.94 802.26 1409.08 880.6 1350.9 937.34 1286.4 958.49 1223.18 939.31 1167.18 884.58 1121.96 819.82 1090.56 768.77 1072.95 761.13 1069.02 811.42 1075.4 909.46 1088.44 1022.14 1107.45 1100.85 1126.57 1112.67 1142.82 1051.54 1157.1 957.7 1164.87 887.24 1165.57 892.96 1161.19 982.3 1149.79 1108.84 1132.5 1196 1110.88 1188.36 1085.14 1093.33 1056.75 982.04 1025.99 945.43 994.29 1017.28 962.79 1150.45 930.39 1242.66 899.2 1221.05 869.87 1102.27 840.36 990.35 813.11 982.47 788.47 1090.25 763.82 1219.3 742.36 1253.16 723.87 1164.67 705.19 1029.8 689.08 960.44 675 1007.5 660.02 1128.5 646.06 1220.28 632.11 1210.06 615.78 1104 597.74 977.24 576.65 914.03 551.24 949.55 520.98 1049.18 484.9 1138.94 443.73 1159.79 396.67 1093.75 344.41 978.45 290.17 870.63 234.37 821.52 180.1 842.92 131.8 915.86 91.58 994.28 63.2 1038 48.51 1028.06 49.15 964.63 65.26 871.2 92.17 772.16 127.94 696.07 166.78 655.35 199.3 651.69 221.28 676.28 226.45 713.76 210.21 756.29 173.24 787.08 118.4 800.4 52.69 797.9 -14.8 777.49 -73.28 744.57 -113.12 701.49 -127.16 654.34 -112.29 607.86 -73.1 559.07 -15.97 514.96 47.15 476.96 100.55 438.92 134.03 407.41 139.12 382.76 112.87 358.11 63.05 340.91 1.43 330.94 -83.69 319.34 -107.11 320.8 -35.8 319.92 30.63 308.12 97.92 284.77 155.79 244.57 196.59 188.55 216.09 116.12 214.45 33.12 193.18 -44.82 159.58 -108.71 121.13 -143.05 82.39 -140.32 52.42 -100.93 35.72 -37.16 33.18 21.01 47.28 50.61 76.2 28.26 117.55 -47.74 167.83 -156.91 222.78 -258.96 280.38 -309.48 336.04 -287.83 387.27 -205.68 433.93 -116.04 473.73 -73.86 506.82 -116.68 533.85 -228.4 555.33 -348.12 572.7 -401.74 591.52 -301.26 621.93 -209.16 639.12 -391.43 650.67 -448.04 665.07 -385.97 682.71 -255.98 700.25 -172.33 721.26 -208.65 745.9 -337.68 770.55 -445.49 798.25 -435.16 828.71 -318.38 859.08 -194.71 891.99 -165.81 926.92 -248.49 961.24 -372.15 996.82 -432.26 1032.65 -381.77 1066.52 -256.57 1099.01 -145.48 1128.54 -119.76 1179.29 -270.66 1162.95 -37.96 1131.13 -79.75 1103.22 -196.97 1097.66 -166.22 1137.64 -23.76 1183.44 66.23 1240.85 122.1 1305.26 138.94 1369.37 120.18 1426.85 81.13 1470.1 38.73 1493.73 0.31 1494.31 -19.44 1471.58 -18.38 1431.77 0.82 1380.53 36.28 1327.99 81.15 1287.27 134.21 1265.67 187.68 1269.73 237.59 1301.45 288.16 1355.41 332.5 1422.06 370.08 1488.55 407.25 1540.87 438.16 1567.12 462.8Q1567.12 462.8 1567.12 462.8" opacity="0.11"></path><path d="M1465.02 467.17C1462.86 488.3 1437.27 514.56 1393.05 545.25 1337.51 575.36 1278.71 608.62 1225.12 643.06 1171.79 688.7 1181.58 742.08 1232.74 734.1 1275.05 715.15 1314.38 685.18 1345.33 648.92 1365.69 618.62 1371.1 598.24 1361.23 598.09 1337.5 625.35 1301.41 680.65 1256.48 759.62 1205.41 845.76 1152.4 923.99 1100.88 973.75 1052.38 981.29 1009.91 944.81 974.53 876.22 946.35 806.14 925.58 761.82 911.21 769.05 903.16 832.84 899.35 934.03 898.14 1034.18 900.35 1089.82 902.81 1077.24 904.3 1002.02 906.79 907.15 906.96 843.41 904.29 852.13 901.47 934.75 895.46 1049.65 886.22 1132.71 876.66 1135.48 864.04 1055.89 848.46 943.01 832.77 872.11 814.35 889.78 793.22 988.03 772.1 1102.25 748.77 1154.48 723.32 1112.35 697.74 1003.84 669.83 897.2 639.55 855.56 608.95 900.48 575.82 999.46 540.32 1090.6 504.66 1122.25 466.97 1074.11 427.87 972.56 389.77 866.46 351.61 805.82 314.71 812.05 281.24 876.46 251.37 961.33 226.86 1024.8 208.67 1040.17 198 997.88 195.96 914.86 201.11 816.66 214.57 735.14 235.38 689.82 259.22 687.16 285.85 720.03 311.98 771.08 338.25 846.18 321.2 849.32 269.06 776.49 219.26 710.41 162.73 643.39 104.92 581.99 52.29 525.92 10.53 481 -14.83 446.41 -21.21 419.47 -7.06 399.64 25.99 383.77 71.43 371.6 124.01 359.59 175.37 345.65 215.41 332.53 238.86 315.77 241.02 294.65 220.06 273.52 181.04 248.54 130.98 220.51 76.47 193.31 27.97 164.77 -7.1 137.1 -24.99 113.13 -21.71 93.82 1.83 82.42 42.12 78.69 94.39 86.08 152.06 105.54 209.11 130.33 259.44 161.64 298.71 193.04 324.1 212.52 334.9 216.2 332.36 195.73 317.29 148.97 294.36 78.19 267.62 -7.46 201.33 -125.08 203.79 37.82 242.45 9.87 276.05 -75.58 313.38 -180.92 352.64 -264.18 394.07 -289.28 435.17 -245.87 474.86 -155.27 514.5 -69.19 551.79 -34.78 586.43 -78.33 620.32 -181.37 651.62 -290.45 680.44 -343.55 708.7 -310.09 734.92 -209.69 759.27 -105.35 783.45 -67.36 806.1 -121.69 827.22 -235.9 848.34 -334.17 867.45 -349.74 884.42 -274.69 908.37 -114.72 942.05 -193.69 950.41 -316.81 954.09 -313.63 954.32 -236.16 951.29 -125.8 948.22 -35.08 942.82 -5.27 936.07 -42.06 929.67 -163.72 936.42 -197.21 958.54 -68.27 983.74 25.26 1017.09 88.11 1058.45 108.26 1105.83 86.19 1158.01 36.97 1212.12 -18.94 1263.8 -67.68 1310.26 -91.54 1347.32 -86.24 1371.86 -53.54 1381.53 0.51 1374.98 65.49 1354.56 136.44 1321.44 202.11 1279.87 257.67 1237.69 304.08 1199.17 337.96 1170.8 361.77 1159.18 377.43 1165.98 387.81 1192.03 396.38 1235.25 401.78 1289.98 409.07 1348.67 420.1 1402.9 430.56 1444.06 446.05 1465.02 467.17Q1465.02 467.17 1465.02 467.17" opacity="0.84"></path><path d="M1363.11 257.5C1362.75 275.11 1345.69 291.85 1314.38 308.25 1272.72 325.34 1224.86 343.45 1175.85 363.95 1130.36 387.02 1092.34 414.69 1064.71 448.45 1049.56 486.28 1046.86 531.04 1055.54 582.27 1102.81 685.51 1164.82 781.8 1216.31 826.34 1245.87 798.31 1238.54 709.71 1198.67 631.16 1134.2 655.27 1056.89 791.57 979.35 943.66 903.87 966.93 839.46 842.87 786.72 730.46 763.1 741.49 741.72 802.27 722.12 894.44 703.79 983.69 686.51 1036.48 669.81 1030.18 653.72 968.41 637.63 876.38 621.22 795.44 604.98 765.1 588.1 799.94 570.5 886.24 552.89 983.84 534.98 1045.02 516.94 1042.65 499.05 979.11 481.36 882.91 464.25 795.91 447.75 752.99 432.42 769.23 418.8 833.32 406.47 918.6 396.58 987.5 389.69 1013.46 381.42 916.96 387.84 745.17 409.06 683.18 432.33 770.21 459.09 883.94 477.42 903.54 471.14 809.8 436.73 668.44 370.51 560.77 282.36 517.01 188.77 532.5 115.69 567.31 89.73 597.43 123.07 625.37 176.57 621.58 218.79 614.91 261.47 603.99 299.64 590.06 327.48 575.46 342.75 559.11 343.11 541.5 327.34 523.9 298.54 505.46 260.52 485.78 216.37 465.42 172.55 442.55 133.93 416.02 103.14 387.31 84.72 353.32 80.21 313.26 89.15 270.65 111.44 222.47 144.72 170.31 232.98 74.48 327.32 0.99 403.78 -9.52 449.45 43.86 461.55 134.67 449.27 182.29 417.84 116.57 386.07 -38.88 364.45 -162.6 352.12 -67.19 391.92 -5.38 416.1 -140.77 434.15 -214.81 453.21 -239.48 472.71 -203.37 492.78 -123.18 512.7 -32.16 532.05 27.91 551.56 26.83 570.21 -36.1 587.82 -133.69 605.42 -220.01 621.55 -253.1 636.34 -219.31 651.27 -134.89 665.14 -37.68 678.27 30.9 691.98 44.02 705.52 -0.34 719.42 -79.66 734.62 -161.9 751 -211.23 769.17 -209.37 811.91 -71.17 866.42 84.47 934.75 97.88 1010.62 -17.55 1092.95 -112.11 1170.52 -90.08 1228.95 34.61 1258.59 173.76 1249.58 256.05 1209.78 265.78 1147.02 227.47 1084.57 185.24 1058.77 157.77 1082.21 145.78 1133.21 158.39 1178.63 171.08 1227.62 186.76 1275.26 203.96 1316.76 221.85 1347.34 239.9 1363.11 257.5Q1363.11 257.5 1363.11 257.5" opacity="0.34"></path><path d="M1261.11 501.02C1252.73 529.19 1204.67 544.34 1132.42 544.35 1054.62 541.43 988.87 521.18 947.38 489.16 936.08 468.84 950.76 463.97 981.88 497.74 1024.59 575.1 1063.1 687.61 1089.35 797.69 1104.4 850.89 1101.32 820.07 1082.84 719 1053.01 631.59 1014.19 630.81 971.72 742.4 925.25 883.48 880.28 935.52 839.76 844.05 798.73 707.05 763.48 669.53 735.31 784.24 697.27 929.1 659.57 664.76 654.09 762.09 647.75 876.59 640.19 892.95 626.61 802.96 601.67 667.22 564.32 572.15 512.35 554.7 449.18 606.93 377.28 680.43 305.24 731.49 244.79 747.98 204.85 719.81 195.51 665.65 216.35 593.53 266.07 523.52 332.99 465.72 394.38 408.69 436.73 365.99 445.11 337.82 412.8 309.65 353.66 297.36 286.59 301.26 208.83 315.33 250.55 344.27 349.2 275.26 423.47 180.79 490.32 66.85 543.46 -22.28 604.97 77.63 616.1 -115.76 629.56 2.85 641.09 121.87 660.75 110.07 688.92 -31.69 717.09 -146.43 752.43 -103.25 794.01 44.6 835.59 146.97 883 110.99 934.08 -9.43 982.64 -100.39 1030.57 -74.37 1072.58 42.35 1112.83 204.87 1087.51 111.5 1025.84 41.51 984.92 51.15 953.37 102.4 943.33 171.53 964.35 252.37 1014.38 323.85 1086.01 379.89 1163.95 433.01 1228.8 472.86 1261.11 501.02Q1261.11 501.02 1261.11 501.02" opacity="0.22"></path><path d="M1159.12 423.04C1156.71 444.16 1130.26 476.86 1085.62 518.98 1030.14 559.59 971.23 605.38 916.7 648.88 871.51 680.03 839.33 694.66 820.75 683.01 816.16 650.05 821.67 595.25 833.17 534.55 851.3 498.3 868.9 501.43 882.87 558.15 900.59 706 900.68 775.78 884.65 629.58 871.48 564.87 854.1 584 832.98 682.25 811.86 796.47 787.98 847.54 761.31 807.05 733.96 701.99 702.62 594.21 666.92 538.88 629.55 556.88 587.19 628.2 540.7 709.1 494.17 767.34 446.24 773.73 400.42 732.27 361.24 656.16 330.68 570.23 313.27 494.69 309.85 433.7 323.09 396.07 352.79 376.08 391.84 369.7 438.73 368.45 486.06 364.49 522.54 363.11 544.71 353.09 547.12 331.97 526.39 310.84 489.18 279.61 443.08 241.15 392.36 205.27 348.57 168.09 317.92 137.87 300.9 121.25 302.26 124.09 320.13 152.52 351.33 195.5 392.96 251.1 439.92 299.52 490.73 313.3 540.5 281.86 586.42 201.62 630.27 98.72 668.81 8.46 702.08 -25.02 732.92 14.82 760 110.57 784.27 207.48 807.71 239.82 829.85 184.47 850.97 70.25 872.1 -27.99 891.21 -42.84 907.61 30.01 935.31 178.71 905.52 26.9 872.68 101.8 853.4 190.19 836.82 275.32 827.61 340.84 831.73 385.04 849.32 405.2 881.82 410.66 927.95 403.77 983.75 396.4 1042.63 395.64 1096.88 393.35 1138.38 401.9 1159.11 423.03Q1159.12 423.04 1159.12 423.04" opacity="0.55"></path><path d="M1057.12 271.72C1048.72 299.88 999.25 315.23 928.34 337.46 851.08 383.55 782.42 470.94 730.95 593.3 694.97 690.11 671.72 710.59 653.33 616.6 640.32 497.42 621.95 465.54 593.78 580.25 565.61 722.04 530.32 727.09 494.52 606.77 453.74 445.15 476.4 563.05 552.41 605.71 602.67 598.44 640.72 570.74 649.12 542.58 616.82 514.41 562.27 488.44 506.08 446.9 453.56 384.13 426.34 282.77 425.78 165.33 442.8 94.98 476.67 114.61 515.65 230.83 559.17 330.5 598.27 314.04 626.43 172.25 654.6 57.54 669.18 100.83 674.46 240.66 684.3 355.29 694.38 364.69 714.28 304.79 751.75 219.35 808.83 175.93 882 178.65 958.84 205.23 1024.81 243.54 1057.11 271.71Q1057.12 271.72 1057.12 271.72" opacity="0.34"></path></g></svg>